<?xml version="1.0" encoding="utf-8"?>
<!-- Generator: Adobe Illustrator 22.1.0, SVG Export Plug-In . SVG Version: 6.00 Build 0)  -->
<svg version="1.1" id="Layer_1" xmlns="http://www.w3.org/2000/svg" xmlns:xlink="http://www.w3.org/1999/xlink" x="0px" y="0px"
	 viewBox="0 0 199.51984 51.125" style="enable-background:new 0 0 199.51984 51.125;" xml:space="preserve">
<g>
	<polygon points="29.06651,9.47932 28.11547,8.53394 26.92246,9.1463 27.52769,7.94966 26.57664,7.00428 27.90173,7.2101 
		28.50695,6.01345 28.72069,7.3373 30.04578,7.54312 28.85278,8.15548 	"/>
	<polygon points="39.54382,35.39266 37.66855,34.30123 36.05104,35.74744 36.50957,33.62668 34.6343,32.53525 36.79295,32.31598 
		37.25148,30.19522 38.12707,32.18047 40.28572,31.9612 38.66822,33.40742 	"/>
	<polygon points="13.5197,21.16926 12.63192,19.64786 10.91065,20.02205 12.08325,18.70759 11.19547,17.18619 12.80795,17.8952 
		13.98055,16.58074 13.80452,18.3334 15.417,19.04241 13.69573,19.4166 	"/>
	<path d="M68.17592,35.79346h-3.15723V16.31689h10.99023v2.69141h-7.83301v6.08789h7.33984v2.7041h-7.33984V35.79346z"/>
	<path d="M92.95668,28.3999c0,2.40723-0.61719,4.28516-1.85156,5.63574c-1.23486,1.34961-2.95313,2.02441-5.15576,2.02441
		c-1.37646,0-2.59326-0.31152-3.6499-0.93262c-1.05713-0.62109-1.86963-1.51367-2.43799-2.67773s-0.85254-2.51367-0.85254-4.0498
		c0-2.38965,0.61279-4.25391,1.83838-5.59473c1.22559-1.3418,2.95264-2.01172,5.18213-2.01172
		c2.13135,0,3.81885,0.68555,5.06201,2.05859C92.3351,24.22314,92.95668,26.07275,92.95668,28.3999z M82.23256,28.3999
		c0,3.40137,1.25684,5.10254,3.77002,5.10254c2.48682,0,3.73047-1.70117,3.73047-5.10254c0-3.36621-1.25244-5.04883-3.75684-5.04883
		c-1.31445,0-2.26709,0.43457-2.85742,1.30566C82.52797,25.52686,82.23256,26.7749,82.23256,28.3999z"/>
	<path d="M109.90443,28.3999c0,2.40723-0.61719,4.28516-1.85156,5.63574c-1.23486,1.34961-2.95313,2.02441-5.15576,2.02441
		c-1.37646,0-2.59326-0.31152-3.6499-0.93262c-1.05713-0.62109-1.86963-1.51367-2.43799-2.67773s-0.85254-2.51367-0.85254-4.0498
		c0-2.38965,0.61279-4.25391,1.83838-5.59473c1.22559-1.3418,2.95264-2.01172,5.18213-2.01172
		c2.13135,0,3.81885,0.68555,5.06201,2.05859C109.28285,24.22314,109.90443,26.07275,109.90443,28.3999z M99.18031,28.3999
		c0,3.40137,1.25684,5.10254,3.77002,5.10254c2.48682,0,3.73047-1.70117,3.73047-5.10254c0-3.36621-1.25244-5.04883-3.75684-5.04883
		c-1.31445,0-2.26709,0.43457-2.85742,1.30566C99.47572,25.52686,99.18031,26.7749,99.18031,28.3999z"/>
	<path d="M118.75258,36.06006c-1.83838,0-3.27295-0.66602-4.30273-1.99902c-1.03027-1.33203-1.54541-3.20117-1.54541-5.60742
		c0-2.41602,0.52148-4.29688,1.56543-5.64258c1.04346-1.3457,2.48877-2.01758,4.33594-2.01758
		c1.93604,0,3.41064,0.71484,4.42285,2.14453h0.15967c-0.15088-1.05664-0.22607-1.8916-0.22607-2.50391v-5.36914h3.14355v20.72852
		h-2.45117l-0.5459-1.93164h-0.14648C122.15834,35.32666,120.68861,36.06006,118.75258,36.06006z M119.59193,33.52881
		c1.2876,0,2.22461-0.3623,2.81104-1.08594c0.58594-0.72363,0.8877-1.89746,0.90576-3.52344v-0.43945
		c0-1.85645-0.30225-3.1748-0.90576-3.95605c-0.60449-0.78223-1.55029-1.17285-2.83789-1.17285
		c-1.10107,0-1.94922,0.44629-2.54443,1.33887s-0.89258,2.16406-0.89258,3.81641c0,1.63477,0.28857,2.87988,0.86621,3.73633
		C117.57143,33.1001,118.43715,33.52881,119.59193,33.52881z"/>
	<path d="M131.3058,17.15625c0-0.55957,0.15283-0.99023,0.45947-1.29199c0.30615-0.30176,0.74365-0.45313,1.31201-0.45313
		c0.55078,0,0.979,0.15137,1.28564,0.45313c0.30615,0.30176,0.45947,0.73242,0.45947,1.29199
		c0,0.5332-0.15332,0.95264-0.45947,1.25928c-0.30664,0.30615-0.73486,0.45947-1.28564,0.45947
		c-0.56836,0-1.00586-0.15332-1.31201-0.45947C131.45863,18.10889,131.3058,17.68945,131.3058,17.15625z M134.6227,35.79346
		h-3.13037V21.05908h3.13037V35.79346z"/>
	<path d="M146.13588,36.06006c-2.2915,0-4.08301-0.66895-5.375-2.00488c-1.29248-1.33691-1.93848-3.17773-1.93848-5.52148
		c0-2.40723,0.59961-4.29883,1.79834-5.67578s2.84619-2.06445,4.94238-2.06445c1.94482,0,3.48145,0.58984,4.60938,1.77148
		s1.69141,2.80664,1.69141,4.87598v1.69238h-9.81787c0.04443,1.42969,0.43066,2.52832,1.15918,3.29688
		c0.72803,0.76758,1.75391,1.15234,3.07715,1.15234c0.87061,0,1.68066-0.08203,2.43115-0.24707
		c0.75098-0.16406,1.55664-0.43652,2.41797-0.81934v2.54492c-0.76367,0.36328-1.53613,0.62109-2.31787,0.77246
		S147.1393,36.06006,146.13588,36.06006z M145.56313,23.16455c-0.99463,0-1.79199,0.31543-2.39111,0.94531
		c-0.59961,0.63086-0.95703,1.55078-1.07275,2.75781h6.6875c-0.01758-1.2168-0.31055-2.1377-0.87891-2.76367
		C147.33949,23.47705,146.55775,23.16455,145.56313,23.16455z"/>
	<path d="M159.02113,35.79346h-3.15723V16.31689h10.99023v2.69141h-7.83301v6.08789h7.33984v2.7041h-7.33984V35.79346z"/>
	<path d="M180.37856,35.79346l-0.43945-1.93164h-0.16016c-0.43457,0.68359-1.05469,1.2207-1.8584,1.61133
		s-1.7207,0.58691-2.75098,0.58691c-1.78516,0-3.11719-0.44434-3.99609-1.33301c-0.87891-0.88672-1.31934-2.23242-1.31934-4.03516
		v-9.63281h3.15723v9.08594c0,1.12793,0.23145,1.97461,0.69336,2.53711c0.46094,0.56445,1.18555,0.84668,2.1709,0.84668
		c1.31445,0,2.28027-0.39355,2.89746-1.17871c0.61719-0.78613,0.92578-2.10352,0.92578-3.9502v-7.34082h3.14453v14.73438H180.37856z
		"/>
	<path d="M198.80531,35.79346h-3.14453v-9.05859c0-1.13672-0.22852-1.98438-0.68555-2.54492
		c-0.45801-0.55859-1.18359-0.83887-2.17773-0.83887c-1.32422,0-2.29199,0.39063-2.9043,1.17285
		c-0.61328,0.78125-0.91992,2.09082-0.91992,3.92969v7.33984h-3.12988V21.05908h2.45117l0.43945,1.93164h0.16016
		c0.44336-0.70117,1.07422-1.24219,1.8916-1.625c0.81641-0.38086,1.72266-0.57227,2.71777-0.57227
		c3.53418,0,5.30176,1.79883,5.30176,5.39453V35.79346z"/>
	<path d="M25.71452,0.5625c-13.80572,0-25,11.19428-25,25s11.19428,25,25,25s25-11.19428,25-25S39.52024,0.5625,25.71452,0.5625z
		 M25.71452,47.70536c-4.38286,0-8.47144-1.27429-11.90857-3.47144c0.28571-0.44285,1.70571-2.62286,2.56571-3.60285
		c0.96-1.09715,1.94285-1.21429,3.28857-1.02572c1.34572,0.19144,3.29144,1.29715,4.92285-0.12
		c1.63144-1.41429,6.98858-9.38,13.41715-20.87143c0,0,0.06857-0.07143-0.00286-0.13714c-0.07429-0.06859-0.32-0.24287-0.32-0.24287
		s-0.05715-0.02286-0.11713,0.03715c-0.05715,0.06001-4.70858,5.03428-10.72001,13.84858c0,0-0.55143,0.53142-1.03143,0.20284
		c-0.48-0.32856-0.53714-0.73715-0.24573-1.09713c0.28857-0.36,7.49716-10.60287,9.69715-14.82286c0,0,0.08287-0.14-0.02571-0.22573
		c-0.11143-0.08285-0.21143,0.04858-0.21143,0.04858s-6.40001,6.39143-12.72286,15.19999c0,0-0.55143,0.57715-1.05715,0.1943
		l-0.00284-0.00286c-0.50572-0.38-0.10001-1.06857-0.10001-1.06857c6.74287-8.48858,11.14286-16.39429,11.14286-16.39429
		s0.10001-0.13143-0.01142-0.21429c-0.11143-0.08287-0.22573,0.03428-0.22573,0.03428
		c-3.45428,3.27143-11.33714,13.0057-11.60571,13.38285c-0.26857,0.37428-0.67428,0.43143-1.12285,0.06001
		c-0.44857-0.37142-0.08571-1.04572-0.08571-1.04572c6.83428-8.19428,10.34572-14.02571,10.38857-14.09713
		c0.04286-0.07429,0.00572-0.12286,0.00572-0.12286s-0.23429-0.18858-0.32-0.24001
		c-0.08571-0.05143-0.13429,0.03428-0.13429,0.03428c-9.29714,9.32572-15.49428,16.6543-16.41143,18.61143
		c-0.91427,1.95429,0.68,3.52286,1.23143,4.76571c0.54858,1.24287,0.70572,2.22287-0.08571,3.44286
		c-0.71429,1.10287-2.44285,3.08287-2.77143,3.46001C6.50023,38.16821,3.57166,32.20822,3.57166,25.5625
		c0-12.22857,9.91429-22.14286,22.14286-22.14286s22.14286,9.91429,22.14286,22.14286S37.94309,47.70536,25.71452,47.70536z"/>
</g>
</svg>
