<svg xmlns="http://www.w3.org/2000/svg" xmlns:xlink="http://www.w3.org/1999/xlink" version="1.1" style="enable-background:new 0 0 199.51984 51.125;" xml:space="preserve" width="199.51984" height="51.125"><rect id="backgroundrect" width="100%" height="100%" x="0" y="0" fill="none" stroke="none"/>

<g class="currentLayer" style=""><title>Layer 1</title><g id="svg_1" class="" fill="#990000" fill-opacity="1">
	<polygon points="29.066509246826172,9.812652915716171 28.11547088623047,8.867273658514023 26.922460556030273,9.479633659124374 27.527690887451172,8.282993644475937 26.57663917541504,7.337613433599472 27.901729583740234,7.543433517217636 28.50695037841797,6.346783488988876 28.72068977355957,7.670633167028427 30.045780181884766,7.876453250646591 28.852779388427734,8.488813728094101 " id="svg_2" fill="#990000" fill-opacity="1"/>
	<polygon points="39.543819427490234,35.72599157691002 37.668548583984375,34.634564727544785 36.05104064941406,36.080773681402206 36.50957107543945,33.960011810064316 34.634300231933594,32.86858496069908 36.79294967651367,32.64931234717369 37.25148010253906,30.528554290533066 38.127071380615234,32.513802856206894 40.28572082519531,32.29453405737877 38.66822052001953,33.74075445532799 " id="svg_3" fill="#990000" fill-opacity="1"/>
	<polygon points="13.519700050354004,21.502593368291855 12.631919860839844,19.9811929166317 10.910650253295898,20.355384200811386 12.083250045776367,19.040923446416855 11.195469856262207,17.5195229947567 12.807950019836426,18.228534072637558 13.980549812316895,16.914073318243027 13.804519653320312,18.6667340695858 15.416999816894531,19.375743240118027 13.695730209350586,19.74993261694908 " id="svg_4" fill="#990000" fill-opacity="1"/>
	<path d="M68.17592,36.126793343267444 h-3.15723 V16.65022334326744 h10.99023 v2.6914100000000003 h-7.83301 v6.08789 h7.33984 v2.7041 h-7.33984 V36.126793343267444 z" id="svg_5" fill="#990000" fill-opacity="1"/>
	<path d="M92.95668,28.73323334326744 c0,2.40723 -0.6171900000000001,4.28516 -1.85156,5.63574 c-1.23486,1.3496100000000002 -2.95313,2.02441 -5.15576,2.02441 c-1.37646,0 -2.59326,-0.3115200000000001 -3.6499,-0.9326200000000001 c-1.05713,-0.6210900000000001 -1.8696300000000001,-1.51367 -2.43799,-2.6777300000000004 s-0.8525400000000001,-2.5136700000000003 -0.8525400000000001,-4.0498 c0,-2.38965 0.6127900000000002,-4.25391 1.83838,-5.59473 c1.22559,-1.3418 2.95264,-2.01172 5.18213,-2.01172 c2.13135,0 3.8188500000000003,0.6855500000000001 5.06201,2.05859 C92.3351,24.55647334326744 92.95668,26.40608334326744 92.95668,28.73323334326744 zM82.23256,28.73323334326744 c0,3.40137 1.25684,5.10254 3.77002,5.10254 c2.4868200000000003,0 3.73047,-1.70117 3.73047,-5.10254 c0,-3.36621 -1.25244,-5.04883 -3.7568400000000004,-5.04883 c-1.3144500000000001,0 -2.26709,0.43457000000000007 -2.8574200000000003,1.30566 C82.52797,25.86019334326744 82.23256,27.10823334326744 82.23256,28.73323334326744 z" id="svg_6" fill="#990000" fill-opacity="1"/>
	<path d="M109.90443,28.73323334326744 c0,2.40723 -0.6171900000000001,4.28516 -1.85156,5.63574 c-1.23486,1.3496100000000002 -2.95313,2.02441 -5.15576,2.02441 c-1.37646,0 -2.59326,-0.3115200000000001 -3.6499,-0.9326200000000001 c-1.05713,-0.6210900000000001 -1.8696300000000001,-1.51367 -2.43799,-2.6777300000000004 s-0.8525400000000001,-2.5136700000000003 -0.8525400000000001,-4.0498 c0,-2.38965 0.6127900000000002,-4.25391 1.83838,-5.59473 c1.22559,-1.3418 2.95264,-2.01172 5.18213,-2.01172 c2.13135,0 3.8188500000000003,0.6855500000000001 5.06201,2.05859 C109.28285,24.55647334326744 109.90443,26.40608334326744 109.90443,28.73323334326744 zM99.18031,28.73323334326744 c0,3.40137 1.25684,5.10254 3.77002,5.10254 c2.4868200000000003,0 3.73047,-1.70117 3.73047,-5.10254 c0,-3.36621 -1.25244,-5.04883 -3.7568400000000004,-5.04883 c-1.3144500000000001,0 -2.26709,0.43457000000000007 -2.8574200000000003,1.30566 C99.47572,25.86019334326744 99.18031,27.10823334326744 99.18031,28.73323334326744 z" id="svg_7" fill="#990000" fill-opacity="1"/>
	<path d="M118.75258,36.39339334326744 c-1.83838,0 -3.27295,-0.6660200000000002 -4.30273,-1.99902 c-1.03027,-1.33203 -1.54541,-3.20117 -1.54541,-5.60742 c0,-2.41602 0.5214799999999999,-4.29688 1.56543,-5.64258 c1.04346,-1.3457000000000001 2.48877,-2.01758 4.33594,-2.01758 c1.9360400000000002,0 3.41064,0.7148400000000001 4.42285,2.14453 h0.15967 c-0.15088000000000001,-1.05664 -0.22607000000000002,-1.8916000000000002 -0.22607000000000002,-2.50391 v-5.36914 h3.14355 v20.72852 h-2.45117 l-0.5459,-1.9316400000000002 h-0.14648000000000003 C122.15834,35.65999334326744 120.68861,36.39339334326744 118.75258,36.39339334326744 zM119.59193,33.86214334326744 c1.2876,0 2.22461,-0.36230000000000007 2.81104,-1.08594 c0.5859400000000001,-0.7236300000000001 0.8877000000000002,-1.8974600000000001 0.90576,-3.52344 v-0.43945000000000006 c0,-1.8564500000000002 -0.30225,-3.1748 -0.90576,-3.9560500000000003 c-0.6044900000000001,-0.78223 -1.55029,-1.17285 -2.8378900000000002,-1.17285 c-1.10107,0 -1.94922,0.44629 -2.54443,1.33887 s-0.89258,2.16406 -0.89258,3.81641 c0,1.63477 0.28857000000000005,2.87988 0.86621,3.73633 C117.57143,33.43343334326744 118.43715,33.86214334326744 119.59193,33.86214334326744 z" id="svg_8" fill="#990000" fill-opacity="1"/>
	<path d="M131.3058,17.48958334326744 c0,-0.55957 0.15283000000000002,-0.9902299999999999 0.45947000000000005,-1.29199 c0.30615000000000003,-0.30176000000000003 0.7436500000000001,-0.45313 1.3120100000000001,-0.45313 c0.55078,0 0.979,0.15137 1.28564,0.45313 c0.30615000000000003,0.30176000000000003 0.45947000000000005,0.7324200000000001 0.45947000000000005,1.29199 c0,0.5332 -0.15332,0.9526400000000002 -0.45947000000000005,1.25928 c-0.30664,0.30615000000000003 -0.7348600000000001,0.45947000000000005 -1.28564,0.45947000000000005 c-0.56836,0 -1.00586,-0.15332 -1.3120100000000001,-0.45947000000000005 C131.45863,18.44222334326744 131.3058,18.02278334326744 131.3058,17.48958334326744 zM134.6227,36.126793343267444 h-3.13037 V21.392413343267442 h3.13037 V36.126793343267444 z" id="svg_9" fill="#990000" fill-opacity="1"/>
	<path d="M146.13588,36.39339334326744 c-2.2915,0 -4.08301,-0.6689500000000002 -5.375,-2.00488 c-1.29248,-1.33691 -1.93848,-3.17773 -1.93848,-5.52148 c0,-2.40723 0.5996100000000001,-4.29883 1.79834,-5.6757800000000005 s2.84619,-2.06445 4.94238,-2.06445 c1.94482,0 3.48145,0.5898400000000001 4.60938,1.77148 s1.69141,2.8066400000000002 1.69141,4.87598 v1.69238 h-9.81787 c0.04443000000000001,1.42969 0.43066000000000004,2.52832 1.15918,3.2968800000000003 c0.7280300000000001,0.76758 1.75391,1.1523400000000001 3.07715,1.1523400000000001 c0.8706100000000001,0 1.68066,-0.08203000000000002 2.43115,-0.24707 c0.7509800000000001,-0.16406000000000004 1.5566400000000002,-0.4365200000000001 2.41797,-0.8193400000000001 v2.5449200000000003 c-0.7636700000000002,0.36328000000000005 -1.53613,0.6210900000000001 -2.31787,0.7724599999999999 S147.1393,36.39339334326744 146.13588,36.39339334326744 zM145.56313,23.49788334326744 c-0.99463,0 -1.7919900000000002,0.31543000000000004 -2.3911100000000003,0.94531 c-0.5996100000000001,0.6308600000000001 -0.95703,1.55078 -1.07275,2.75781 h6.6875 c-0.017580000000000005,-1.2168 -0.31055000000000005,-2.1377 -0.8789100000000001,-2.7636700000000003 C147.33949,23.81038334326744 146.55775,23.49788334326744 145.56313,23.49788334326744 z" id="svg_10" fill="#990000" fill-opacity="1"/>
	<path d="M159.02113,36.126793343267444 h-3.15723 V16.65022334326744 h10.99023 v2.6914100000000003 h-7.83301 v6.08789 h7.33984 v2.7041 h-7.33984 V36.126793343267444 z" id="svg_11" fill="#990000" fill-opacity="1"/>
	<path d="M180.37856,36.126793343267444 l-0.43945000000000006,-1.9316400000000002 h-0.16016000000000002 c-0.43457000000000007,0.6835900000000001 -1.05469,1.2207000000000001 -1.8584,1.6113300000000002 s-1.7207000000000001,0.58691 -2.75098,0.58691 c-1.7851599999999999,0 -3.11719,-0.44434000000000007 -3.99609,-1.33301 c-0.8789100000000001,-0.8867200000000002 -1.31934,-2.23242 -1.31934,-4.03516 v-9.63281 h3.15723 v9.08594 c0,1.12793 0.23145000000000002,1.97461 0.6933600000000001,2.53711 c0.46094,0.56445 1.18555,0.8466800000000001 2.1709,0.8466800000000001 c1.3144500000000001,0 2.28027,-0.39355000000000007 2.89746,-1.1787100000000001 c0.6171900000000001,-0.78613 0.92578,-2.10352 0.92578,-3.9502 v-7.34082 h3.14453 v14.73438 H180.37856 z" id="svg_12" fill="#990000" fill-opacity="1"/>
	<path d="M198.80531,36.126793343267444 h-3.14453 v-9.05859 c0,-1.13672 -0.22852000000000003,-1.9843799999999998 -0.6855500000000001,-2.5449200000000003 c-0.45801000000000003,-0.55859 -1.1835900000000001,-0.8388700000000001 -2.17773,-0.8388700000000001 c-1.32422,0 -2.29199,0.39063000000000003 -2.9043,1.17285 c-0.61328,0.78125 -0.9199200000000001,2.09082 -0.9199200000000001,3.92969 v7.33984 h-3.12988 V21.392413343267442 h2.45117 l0.43945000000000006,1.9316400000000002 h0.16016000000000002 c0.4433600000000001,-0.7011700000000001 1.07422,-1.24219 1.8916000000000002,-1.625 c0.81641,-0.3808600000000001 1.72266,-0.5722700000000001 2.7177700000000002,-0.5722700000000001 c3.53418,0 5.30176,1.7988300000000002 5.30176,5.39453 V36.126793343267444 z" id="svg_13" fill="#990000" fill-opacity="1"/>
	<path d="M25.71452,0.8958333432674408 c-13.80572,0 -25,11.194280000000001 -25,25 s11.194280000000001,25 25,25 s25,-11.194280000000001 25,-25 S39.52024,0.8958333432674408 25.71452,0.8958333432674408 zM25.71452,48.03869334326744 c-4.38286,0 -8.47144,-1.27429 -11.90857,-3.47144 c0.28571,-0.4428500000000001 1.70571,-2.62286 2.56571,-3.60285 c0.9600000000000001,-1.09715 1.94285,-1.21429 3.28857,-1.02572 c1.34572,0.19144000000000005 3.29144,1.29715 4.92285,-0.12000000000000001 c1.63144,-1.41429 6.98858,-9.38 13.41715,-20.87143 c0,0 0.06857000000000002,-0.07143000000000001 -0.002860000000000001,-0.13714 c-0.07429000000000002,-0.06859000000000003 -0.32000000000000006,-0.24287 -0.32000000000000006,-0.24287 s-0.05715000000000001,-0.022860000000000005 -0.11713000000000003,0.03715000000000001 c-0.05715000000000001,0.060010000000000015 -4.7085799999999995,5.03428 -10.72001,13.84858 c0,0 -0.55143,0.53142 -1.03143,0.20284000000000002 c-0.48000000000000004,-0.3285600000000001 -0.5371400000000001,-0.7371500000000001 -0.24573000000000003,-1.09713 c0.28857000000000005,-0.36000000000000004 7.49716,-10.60287 9.69715,-14.82286 c0,0 0.08287000000000001,-0.14 -0.025710000000000004,-0.22573000000000004 c-0.11143000000000002,-0.08285000000000001 -0.21143000000000003,0.048580000000000005 -0.21143000000000003,0.048580000000000005 s-6.40001,6.39143 -12.72286,15.19999 c0,0 -0.55143,0.57715 -1.05715,0.19430000000000003 l-0.002840000000000001,-0.002860000000000001 c-0.5057200000000001,-0.38000000000000006 -0.10001,-1.06857 -0.10001,-1.06857 c6.74287,-8.48858 11.14286,-16.39429 11.14286,-16.39429 s0.10001,-0.13143000000000002 -0.011420000000000001,-0.21429000000000004 c-0.11143000000000002,-0.08287000000000001 -0.22573000000000004,0.034280000000000005 -0.22573000000000004,0.034280000000000005 c-3.45428,3.27143 -11.33714,13.0057 -11.60571,13.38285 c-0.26857000000000003,0.37428000000000006 -0.6742800000000001,0.43143000000000004 -1.12285,0.060010000000000015 c-0.4485700000000001,-0.3714200000000001 -0.08571000000000002,-1.04572 -0.08571000000000002,-1.04572 c6.83428,-8.194280000000001 10.34572,-14.02571 10.38857,-14.09713 c0.04286000000000001,-0.07429000000000002 0.005720000000000001,-0.12286000000000001 0.005720000000000001,-0.12286000000000001 s-0.23429000000000003,-0.18858000000000003 -0.32000000000000006,-0.24001000000000003 c-0.08571000000000002,-0.05143000000000001 -0.13429000000000002,0.034280000000000005 -0.13429000000000002,0.034280000000000005 c-9.29714,9.32572 -15.49428,16.6543 -16.41143,18.61143 c-0.91427,1.95429 0.6800000000000002,3.52286 1.23143,4.76571 c0.54858,1.24287 0.7057200000000001,2.22287 -0.08571000000000002,3.44286 c-0.7142900000000001,1.10287 -2.44285,3.08287 -2.77143,3.46001 C6.50023,38.50154334326744 3.57166,32.54155334326744 3.57166,25.89583334326744 c0,-12.22857 9.91429,-22.14286 22.14286,-22.14286 s22.14286,9.91429 22.14286,22.14286 S37.94309,48.03869334326744 25.71452,48.03869334326744 z" id="svg_14" fill="#990000" fill-opacity="1"/>
</g></g></svg>