<svg xmlns="http://www.w3.org/2000/svg" xmlns:xlink="http://www.w3.org/1999/xlink" version="1.1" style="" xml:space="preserve" width="45.727272033691406" height="45.60606002807617"><rect id="backgroundrect" width="100%" height="100%" x="0" y="0" fill="none" stroke="none" class="" style=""/>

<g class="currentLayer" style=""><title>Layer 1</title><g id="svg_1" class="selected" fill="#ffffff" fill-opacity="1">
	<g id="svg_2" fill="#ffffff" fill-opacity="1">
		<polygon points="25.534639322231214,8.21619987487793 24.68330033580014,7.368797779083252 23.615386227751742,7.917691230773926 24.15714981864835,6.845072269439697 23.305810832217276,5.997660160064697 24.491977019668866,6.182151794433594 25.03374251019727,5.109523296356201 25.225065826328546,6.296169281005859 26.411232013780136,6.480650901794434 25.34331600609994,7.02955436706543 " id="svg_3" fill="#ffffff" fill-opacity="1"/>
		<polygon points="34.9134064519576,31.44397735595703 33.23475882133562,30.465646743774414 31.786846167750582,31.76198959350586 32.19729011210802,29.86100959777832 30.518644381117838,28.8826904296875 32.45096314310149,28.686147689819336 32.861408987090726,26.785179138183594 33.645204665324854,28.564678192138672 35.5775291262039,28.368135452270508 34.12961077372347,29.66446876525879 " id="svg_4" fill="#ffffff" fill-opacity="1"/>
		<polygon points="11.617876934306992,18.694639205932617 10.823182118633895,17.330913543701172 9.282386968303172,17.66632080078125 10.332031367537752,16.488080978393555 9.537335602048756,15.124356269836426 10.980758475880066,15.759886741638184 12.030402875114646,14.581656455993652 11.872836016027463,16.152673721313477 13.316248441883886,16.788204193115234 11.775453291553163,17.123613357543945 " id="svg_5" fill="#ffffff" fill-opacity="1"/>
		<path d="M22.53409051968582,0.22348481422722982 c-12.358212963770681,0 -22.378787514423593,10.034143374004959 -22.378787514423593,22.40909054875374 s10.020574550652912,22.40909054875374 22.378787514423593,22.40909054875374 s22.378787514423593,-10.03415333360076 22.378787514423593,-22.40909054875374 S34.89229353732872,0.22348481422722982 22.53409051968582,0.22348481422722982 zM22.53409051968582,42.48062556907774 c-3.923329673495334,0 -7.583216260370874,-1.1422262038552762 -10.65997132138724,-3.1116665560251477 c0.255754729842617,-0.39695960977852385 1.5268698606618782,-2.3510323056298494 2.2967001511580487,-3.2294686551409963 c0.8593454405538652,-0.9834403680247065 1.7391500659598071,-1.0884443865382671 2.9437753325417684,-0.9194200862258675 c1.2046252665819615,0.17160383562445639 2.9463314873823054,1.1627230520105363 4.4067015376791,-0.10755367503821858 c1.4603799964245787,-1.2677171109282972 6.25583588467646,-8.407900733488201 12.010386929029833,-18.70838361836195 c0,0 0.061377554556225865,-0.06403024139463916 -0.002556154840536386,-0.12292133135676389 c-0.06649981036508286,-0.06148058486998087 -0.28644848018462227,-0.21769684498429315 -0.28644848018462227,-0.21769684498429315 s-0.0511529351940803,-0.020496848155260105 -0.10485207910091264,0.03329492875754837 c-0.0511529351940803,0.05378181731700903 -4.214890463361029,4.512553422387838 -9.596024086184835,12.413361335747242 c0,0 -0.49360642967369533,0.4763475478959086 -0.9232791499506277,0.18182238091468822 c-0.42967272027693354,-0.2945152073854211 -0.4808256554710136,-0.6607494641226537 -0.21996856207510793,-0.9834304084289074 c0.25832083081093776,-0.32269090390205424 6.711090045614326,-9.504023968387841 8.680413400755818,-13.286668493421674 c0,0 0.07417822101447613,-0.12549090707302094 -0.023015339692611672,-0.20232918866574764 c-0.0997497155476241,-0.07426870587646969 -0.18925491947753442,0.04355331243097788 -0.18925491947753442,0.04355331243097788 s-5.728979549820225,5.729048332119586 -11.388893188307044,13.624717094046474 c0,0 -0.49360642967369533,0.5173312846106289 -0.9463044357710235,0.17416345174491404 l-0.0025462087127521987,-0.0025596161204576523 c-0.4526980060973293,-0.34061817634105734 -0.08952509618547869,-0.9578242876285321 -0.08952509618547869,-0.9578242876285321 c6.035887214856921,-7.608852322094441 9.97454387126769,-14.695244167741539 9.97454387126769,-14.695244167741539 s0.08952509618547869,-0.11781205871164811 -0.010224619362145538,-0.19208076458811774 c-0.0997497155476241,-0.0742786654722691 -0.20205558593578457,0.030735312637090718 -0.20205558593578457,0.030735312637090718 c-3.092101936187368,2.9323938316351175 -10.148461861702007,11.657836357997061 -10.388869716373621,11.99589491821766 c-0.2404078546716147,0.33549894410014197 -0.6035807645834653,0.38672114529669294 -1.0051258354867134,0.05378181731700903 c-0.4015450709032488,-0.3329293683838849 -0.07672442972722833,-0.9373473586648705 -0.07672442972722833,-0.9373473586648705 c6.117714008137438,-7.345062467750311 9.260988771774453,-12.572127252386212 9.299341040510285,-12.636157493780852 c0.03837216099139837,-0.0665898575150967 0.005122255808856965,-0.11012325075447568 0.005122255808856965,-0.11012325075447568 s-0.20972405045739392,-0.1690342599081995 -0.28644848018462227,-0.21513722886383552 c-0.07672442972722833,-0.046093009359836616 -0.12021884652748353,0.030735312637090718 -0.12021884652748353,0.030735312637090718 C17.306405756316465,18.785890636956697 11.759022607579954,25.354961157588964 10.9380393818897,27.109264280895 c-0.8184071785941478,1.7517534667813779 0.6087030203923223,3.1577695249807842 1.1023094500660167,4.2718100727236274 c0.49107016708872747,1.1140604669344427 0.631728306212718,1.9924968164455892 -0.07672442972722833,3.086050475628972 c-0.6393967707343268,0.9885695598614209 -2.1867258162482788,2.7633695313227173 -2.4808527070822946,3.1014280915433172 C5.334390988278034,33.93187623179377 2.7128801420717488,28.589559004566677 2.7128801420717488,22.63257536298097 c0,-10.961242308592201 8.874790576042209,-19.84805020609677 19.821210377614072,-19.84805020609677 S42.355300897299884,11.671333054388768 42.355300897299884,22.63257536298097 S33.48051032125768,42.48062556907774 22.53409051968582,42.48062556907774 z" id="svg_6" fill="#ffffff" fill-opacity="1"/>
	</g>
</g></g></svg>