<svg xmlns="http://www.w3.org/2000/svg" xmlns:xlink="http://www.w3.org/1999/xlink" version="1.1" style="enable-background:new 0 0 47.25 47.75;" xml:space="preserve" width="45" height="45"><rect id="backgroundrect" width="100%" height="100%" x="0" y="0" fill="none" stroke="none" class="" style=""/>

<g class="currentLayer" style=""><title>Layer 1</title><g id="svg_1" class="selected" fill-opacity="1" fill="#f7f7e8">
	<g id="svg_2" fill="#f7f7e8" fill-opacity="1">
		<polygon points="25.306224244505756,8.145367140431073 24.452580422397205,7.296819341620801 23.381772582436952,7.846454653279193 23.92500410072705,6.7723854725407024 23.0713602786185,5.923827211569869 24.26073863752299,6.108568518293038 24.80397015581309,5.03448935094674 24.995811940687304,6.222740174274503 26.185190299591795,6.407471018837112 25.114382459631543,6.9571167926560635 " id="svg_3" fill="#f7f7e8" fill-opacity="1"/>
		<polygon points="34.710392160235756,31.404556214909643 33.02719792068308,30.42490232659311 31.575363899756667,31.722997751405227 31.986920567448237,29.81944758392451 30.30372632789556,28.839805108874042 32.241280419407644,28.642996651050293 32.652838989310226,26.739457896835642 33.43875649058566,28.52136357237846 35.376314386519766,28.32455511455471 33.92447465896032,29.622641028311772 " id="svg_4" fill="#f7f7e8" fill-opacity="1"/>
		<polygon points="11.35177356511042,18.637977343298143 10.554925959366187,17.27240668950635 9.009958736239184,17.608268674440023 10.062445430847674,16.428435610388373 9.265597825103441,15.06286495659658 10.712929312566985,15.699255356935918 11.765416007175475,14.519431803939323 11.607423116135237,16.0925736254547 13.05474414143822,16.72896402579404 11.509776918311218,17.06482791293872 " id="svg_5" fill="#f7f7e8" fill-opacity="1"/>
		<path d="M22.297550172095345,0.14184397455016387 c-12.39168169669807,0 -22.439394146203995,10.047712449505925 -22.439394146203995,22.439394146203995 s10.047712449505925,22.439394146203995 22.439394146203995,22.439394146203995 s22.439394146203995,-10.04772242256999 22.439394146203995,-22.439394146203995 S34.68922189572935,0.14184397455016387 22.297550172095345,0.14184397455016387 zM22.297550172095345,42.45612865409712 c-3.933954904943705,0 -7.603753261998296,-1.143770825356245 -10.688840845987201,-3.115874432757497 c0.2564473693668842,-0.39749641443789036 1.5310049568712714,-2.3542115839868782 2.302920115500689,-3.233835834518075 c0.8616727352142337,-0.9847702649682757 1.7438600632101298,-1.0899162794053554 2.9517477174401283,-0.9206634091585875 c1.2078876542299986,0.17183589383959771 2.954310794904828,1.164295391201973 4.418635845437646,-0.10769911883771424 c1.4643350235968828,-1.2694314325749876 6.272778051078319,-8.419270656719803 12.04291367328167,-18.73368278545141 c0,0 0.061543778344988864,-0.06411682887375363 -0.002563077464699747,-0.12308755668997769 c-0.06667990633845333,-0.06156372447311882 -0.28722424507141125,-0.21799123433232315 -0.28722424507141125,-0.21799123433232315 s-0.05129146848618987,-0.020524565845727934 -0.1051360413730145,0.033339953169226666 c-0.05129146848618987,0.05385454595088962 -4.226305304944516,4.518655704945325 -9.622012209892272,12.430147804796697 c0,0 -0.4949432234168054,0.4769917080998422 -0.9257795910239219,0.18206825757026682 c-0.43083636760711685,-0.2949134774655105 -0.48212783609330656,-0.6616429892629387 -0.22056428486108787,-0.984760291904211 c0.25902041989564895,-0.3231272757053377 6.729265139460564,-9.516876168519257 8.70392185126245,-13.304635927334427 c0,0 0.07437911179661753,-0.12566060721874237 -0.023077670246362696,-0.20260279648005963 c-0.10001985950767998,-0.07436913873255256 -0.18976746302843103,0.04361220915615562 -0.18976746302843103,0.04361220915615562 s-5.744494874492288,5.736795669034124 -11.419736792117357,13.643141667827964 c0,0 -0.4949432234168054,0.5180308667272329 -0.9488672343343496,0.17439897130429743 l-0.002553104400634767,-0.002563077464699747 c-0.45392401091754436,-0.34107879102230104 -0.089767549648881,-0.9591195441931489 -0.089767549648881,-0.9591195441931489 c6.052233712345362,-7.61914169985056 10.0015571090132,-14.715116404980423 10.0015571090132,-14.715116404980423 s0.089767549648881,-0.11797137482464322 -0.010252309858798988,-0.19234051355719575 c-0.10001985950767998,-0.07437911179661753 -0.20260279648005963,0.030776875704526918 -0.20260279648005963,0.030776875704526918 c-3.1004760218411684,2.936359279587865 -10.175946107253433,11.673601137891412 -10.417005038768053,12.012116851449013 c-0.24105893151462088,0.33595263609290155 -0.6052153927832845,0.3872441045790911 -1.0078479352146388,0.05385454595088962 c-0.40263254243135455,-0.3333795855641368 -0.07693221619725231,-0.9386149244755507 -0.07693221619725231,-0.9386149244755507 c6.134282110407948,-7.354995125025511 9.286069546863436,-12.589128419056534 9.324525681897997,-12.653245247930288 c0.03847608116269112,-0.06667990633845333 0.005136127993464473,-0.11027216936647896 0.005136127993464473,-0.11027216936647896 s-0.21029202887415893,-0.1692628433108331 -0.28722424507141125,-0.21542815686762343 c-0.07693221619725231,-0.04615534049272539 -0.12054442535340787,0.030776875704526918 -0.12054442535340787,0.030776875704526918 C17.055707699542094,18.729351560001167 11.493301028748201,25.307305371467862 10.670094401632593,27.063980822001493 c-0.8206236035227779,1.7541223461329938 0.6103515207767489,3.1620397463142873 1.105294744193554,4.27758680036664 c0.4924000920802355,1.115567000180483 0.6334391640871766,1.9951912507116794 -0.07693221619725231,3.0902237119823694 c-0.6411283964812758,0.9899063929617402 -2.1926479461342097,2.7671064093410966 -2.487571396663785,3.1056221228986978 C5.051270107423114,33.89581892537038 2.4226596387523887,28.546277333979404 2.4226596387523887,22.581238120754158 c0,-10.976065091058613 8.898825442284346,-19.87489053334296 19.87489053334296,-19.87489053334296 S42.172440705438305,11.605173029695546 42.172440705438305,22.581238120754158 S33.27361526315396,42.45612865409712 22.297550172095345,42.45612865409712 z" id="svg_6" fill="#f7f7e8" fill-opacity="1"/>
	</g>
</g></g></svg>